<svg width="155" height="144" viewBox="0 0 155 144" fill="none" xmlns="http://www.w3.org/2000/svg">
<g id="CategoryIcon">
<g id="Group 1">
<path id="Rectangle 1" d="M0 10C0 4.47715 4.47715 0 10 0H62C67.5228 0 72 4.47715 72 10V57C72 62.5228 67.5228 67 62 67H10C4.47715 67 0 62.5228 0 57V10Z" fill="black"/>
<path id="Rectangle 2" d="M9 21C9 15.4772 13.4772 11 19 11H52.1818C57.7047 11 62.1818 15.4772 62.1818 21V46C62.1818 51.5228 57.7047 56 52.1818 56H19C13.4772 56 9 51.5228 9 46V21Z" fill="white"/>
</g>
<g id="Group 2">
<path id="Rectangle 1_2" d="M0 87C0 81.4772 4.47715 77 10 77H62C67.5228 77 72 81.4772 72 87V134C72 139.523 67.5228 144 62 144H10C4.47715 144 0 139.523 0 134V87Z" fill="black"/>
<path id="Rectangle 2_2" d="M9 98C9 92.4772 13.4772 88 19 88H52.1818C57.7047 88 62.1818 92.4772 62.1818 98V123C62.1818 128.523 57.7047 133 52.1818 133H19C13.4772 133 9 128.523 9 123V98Z" fill="white"/>
</g>
<g id="Group 3">
<path id="Rectangle 1_3" d="M83 87C83 81.4772 87.4772 77 93 77H145C150.523 77 155 81.4772 155 87V134C155 139.523 150.523 144 145 144H93C87.4772 144 83 139.523 83 134V87Z" fill="black"/>
<path id="Rectangle 2_3" d="M92 98C92 92.4772 96.4772 88 102 88H135.182C140.705 88 145.182 92.4772 145.182 98V123C145.182 128.523 140.705 133 135.182 133H102C96.4772 133 92 128.523 92 123V98Z" fill="white"/>
</g>
<g id="Group 4">
<path id="Rectangle 1_4" d="M83 10C83 4.47715 87.4772 0 93 0H145C150.523 0 155 4.47715 155 10V57C155 62.5228 150.523 67 145 67H93C87.4772 67 83 62.5228 83 57V10Z" fill="black"/>
<path id="Rectangle 2_4" d="M92 21C92 15.4772 96.4772 11 102 11H135.182C140.705 11 145.182 15.4772 145.182 21V46C145.182 51.5228 140.705 56 135.182 56H102C96.4772 56 92 51.5228 92 46V21Z" fill="white"/>
</g>
</g>
</svg>
